<svg width="122" height="25" viewBox="0 0 122 25" fill="none" xmlns="http://www.w3.org/2000/svg">
<path d="M65.1106 12.1433C64.215 12.1721 63.3385 12.4086 62.5503 12.834V20.7195C63.1633 20.7767 63.7791 20.7999 64.3948 20.789C66.9006 20.789 67.2456 19.6433 67.2456 18.0411V14.276C67.2441 13.0925 66.8522 12.1433 65.1106 12.1433ZM48.4656 11.7065C46.7269 11.7065 46.329 12.6602 46.329 13.8422V14.5057H50.5992V13.8422C50.5992 12.6678 50.1997 11.714 48.4626 11.714L48.4656 11.7065ZM16.2152 19.9214C16.1859 20.1141 16.2022 20.311 16.2629 20.4963C16.3236 20.6816 16.427 20.85 16.5648 20.9881C16.7026 21.1261 16.8709 21.23 17.0562 21.2912C17.2414 21.3525 17.4385 21.3694 17.6316 21.3407C18.4831 21.3125 19.3146 21.0753 20.0526 20.6499V18.7817H17.7677C16.6904 18.7817 16.2152 18.9828 16.2152 19.9214ZM81.3031 12.1448C79.5614 12.1448 78.9576 13.094 78.9576 14.2775V18.5928C78.9576 19.7778 79.5629 20.73 81.3031 20.73C83.0432 20.73 83.6485 19.7778 83.6485 18.5928V14.276C83.6485 13.094 83.0432 12.1433 81.3031 12.1433V12.1448ZM7.67484 24.7597H2.55878V12.3806H0V8.11971H2.55878V5.55018C2.55878 2.07376 4.00387 0 8.10761 0H11.5259V4.26693H9.39684C7.79287 4.26693 7.69451 4.86245 7.69451 5.97491V8.11064H11.5637L11.1098 12.3776H7.67938L7.67484 24.7597ZM25.1702 24.7914H20.9121L20.7275 23.7137C19.2494 24.5435 17.5808 24.9753 15.8853 24.9667C15.2289 25.0072 14.5715 24.9047 13.9586 24.6663C13.3457 24.428 12.792 24.0594 12.3357 23.5862C11.8795 23.1129 11.5317 22.5463 11.3164 21.9255C11.101 21.3048 11.0233 20.6447 11.0886 19.9909C11.0886 16.5825 13.0315 15.3673 16.5103 15.3673H20.0496V14.6297C20.0496 12.8915 19.8499 12.3791 17.1746 12.3791H12.806L13.2343 8.11366H18.022C23.8976 8.11366 25.1869 9.96826 25.1869 14.6675L25.1702 24.7914ZM39.6831 12.6995C38.1411 12.3638 36.5701 12.178 34.9922 12.1448C32.6968 12.1448 32.0037 12.6496 32.0037 14.5979V18.2814C32.0037 20.2282 32.6983 20.7376 34.9922 20.7376C36.5703 20.7039 38.1413 20.5171 39.6831 20.1799V24.341C38.006 24.7551 36.2869 24.9762 34.5595 25C29.0621 25 26.8756 22.1115 26.8756 17.9398V14.9395C26.8756 10.7648 29.0621 7.87031 34.5595 7.87031C36.287 7.89374 38.0062 8.11536 39.6831 8.53083V12.6995ZM55.7077 17.9429H46.326V18.286C46.326 20.2328 47.0205 20.7421 49.3145 20.7421C51.3205 20.7574 53.323 20.5705 55.2915 20.1844V24.338C53.193 24.8121 51.0451 25.0333 48.8938 24.997C43.3964 24.997 41.2084 22.1085 41.2084 17.9368V14.5118C41.2084 10.8615 42.8305 7.87183 48.4716 7.87183C54.1128 7.87183 55.7258 10.8268 55.7258 14.5118L55.7077 17.9429ZM72.3526 18.0215C72.3526 22.0541 71.1996 24.994 64.2102 24.994C61.9322 24.9777 59.6602 24.7602 57.4206 24.344V1.28174L62.5397 0.427752V8.49002C63.7763 8.06915 65.0752 7.85964 66.3816 7.87031C71.5007 7.87031 72.3587 10.1632 72.3587 13.8407L72.3526 18.0215ZM88.763 18.1091C88.763 21.5855 87.3255 24.9547 81.3091 24.9547C75.2927 24.9547 73.828 21.5719 73.828 18.0955V14.737C73.828 11.2606 75.2867 7.88392 81.3106 7.88392C87.3346 7.88392 88.7645 11.2576 88.7645 14.737L88.763 18.1091ZM105.161 18.1091C105.161 21.5855 103.722 24.9547 97.7074 24.9547C91.6926 24.9547 90.2263 21.5719 90.2263 18.0955V14.737C90.2263 11.2606 91.685 7.88392 97.709 7.88392C103.733 7.88392 105.163 11.2576 105.163 14.737L105.161 18.1091ZM121.989 24.7733H116.441L111.75 16.9483V24.7733H106.637V1.28174L111.757 0.427752V15.5426L116.448 8.11517H121.997L116.873 16.2228L121.989 24.7733ZM97.6999 12.1433C95.9612 12.1433 95.3575 13.0925 95.3575 14.276V18.5913C95.3575 19.7763 95.9627 20.7285 97.6999 20.7285C99.437 20.7285 100.051 19.7763 100.051 18.5913V14.276C100.051 13.0925 99.431 12.1433 97.6999 12.1433Z" fill="black"/>
</svg>
