<svg width="96" height="32" viewBox="0 0 96 32" fill="none" xmlns="http://www.w3.org/2000/svg">
<g clip-path="url(#clip0_206_4475)">
<path d="M41.0823 16.8399C41.0539 18.9519 40.2068 20.9677 38.7243 22.4511C37.2419 23.9345 35.2432 24.7661 33.1608 24.7661C31.0784 24.7661 29.0797 23.9345 27.5972 22.4511C26.1147 20.9677 25.2677 18.9519 25.2393 16.8399C25.2677 14.7278 26.1147 12.712 27.5972 11.2286C29.0797 9.74523 31.0784 8.91357 33.1608 8.91357C35.2432 8.91357 37.2419 9.74523 38.7243 11.2286C40.2068 12.712 41.0539 14.7278 41.0823 16.8399ZM37.6149 16.8399C37.6579 16.2198 37.5747 15.5974 37.3704 15.0113C37.1661 14.4253 36.845 13.8882 36.4272 13.4334C36.0094 12.9787 35.5038 12.6161 34.9418 12.3681C34.3799 12.1202 33.7736 11.9922 33.1608 11.9922C32.548 11.9922 31.9417 12.1202 31.3798 12.3681C30.8178 12.6161 30.3122 12.9787 29.8944 13.4334C29.4765 13.8882 29.1555 14.4253 28.9512 15.0113C28.7468 15.5974 28.6636 16.2198 28.7067 16.8399C28.6636 17.4599 28.7468 18.0823 28.9512 18.6684C29.1555 19.2544 29.4765 19.7915 29.8944 20.2463C30.3122 20.701 30.8178 21.0636 31.3798 21.3116C31.9417 21.5595 32.548 21.6875 33.1608 21.6875C33.7736 21.6875 34.3799 21.5595 34.9418 21.3116C35.5038 21.0636 36.0094 20.701 36.4272 20.2463C36.845 19.7915 37.1661 19.2544 37.3704 18.6684C37.5747 18.0823 37.6579 17.4599 37.6149 16.8399Z" fill="black"/>
<path d="M58.1702 16.8399C58.1418 18.9519 57.2947 20.9677 55.8122 22.4511C54.3297 23.9345 52.3311 24.7661 50.2487 24.7661C48.1663 24.7661 46.1676 23.9345 44.6851 22.4511C43.2026 20.9677 42.3555 18.9519 42.3271 16.8399C42.3555 14.7278 43.2026 12.712 44.6851 11.2286C46.1676 9.74523 48.1663 8.91357 50.2487 8.91357C52.3311 8.91357 54.3297 9.74523 55.8122 11.2286C57.2947 12.712 58.1418 14.7278 58.1702 16.8399ZM54.7027 16.8399C54.7458 16.2198 54.6626 15.5974 54.4583 15.0113C54.254 14.4253 53.9329 13.8882 53.5151 13.4334C53.0973 12.9787 52.5917 12.6161 52.0297 12.3681C51.4678 12.1202 50.8615 11.9922 50.2487 11.9922C49.6359 11.9922 49.0296 12.1202 48.4676 12.3681C47.9057 12.6161 47.4001 12.9787 46.9822 13.4334C46.5644 13.8882 46.2434 14.4253 46.039 15.0113C45.8347 15.5974 45.7515 16.2198 45.7946 16.8399C45.7515 17.4599 45.8347 18.0823 46.039 18.6684C46.2434 19.2544 46.5644 19.7915 46.9822 20.2463C47.4001 20.701 47.9057 21.0636 48.4676 21.3116C49.0296 21.5595 49.6359 21.6875 50.2487 21.6875C50.8615 21.6875 51.4678 21.5595 52.0297 21.3116C52.5917 21.0636 53.0973 20.701 53.5151 20.2463C53.9329 19.7915 54.254 19.2544 54.4583 18.6684C54.6626 18.0823 54.7458 17.4599 54.7027 16.8399Z" fill="black"/>
<path d="M74.5493 9.32721V23.677C74.5493 29.5828 71.1099 31.9939 67.0441 31.9939C65.5475 32.0048 64.0817 31.5622 62.8347 30.7228C61.5876 29.8834 60.616 28.6854 60.0444 27.2824L63.0638 26.0103C63.3739 26.831 63.918 27.5395 64.6266 28.0453C65.3352 28.5511 66.1763 28.8314 67.0426 28.8504C69.6451 28.8504 71.2587 27.2241 71.2587 24.1643V23.0148H71.1394C70.6181 23.6061 69.976 24.0751 69.2578 24.389C68.5395 24.7029 67.7625 24.8542 66.9808 24.8324C64.9355 24.7629 62.9969 23.89 61.5743 22.3978C60.1517 20.9057 59.3564 18.9112 59.3564 16.8354C59.3564 14.7597 60.1517 12.7652 61.5743 11.273C62.9969 9.78088 64.9355 8.9079 66.9808 8.83842C67.7598 8.82003 68.5338 8.97054 69.251 9.27986C69.9681 9.58919 70.6119 10.0502 71.1394 10.6321H71.2602V9.33019H74.5538L74.5493 9.32721ZM71.5019 16.8698C71.551 16.2668 71.48 15.6598 71.293 15.0852C71.106 14.5106 70.8069 13.9801 70.4134 13.5252C70.02 13.0704 69.5403 12.7005 69.003 12.4377C68.4657 12.1748 67.8817 12.0244 67.2858 11.9954C66.6799 12.0173 66.0844 12.1614 65.534 12.4192C64.9835 12.677 64.4892 13.0434 64.0798 13.4969C63.6704 13.9505 63.354 14.4822 63.1493 15.061C62.9445 15.6398 62.8553 16.2542 62.887 16.8683C62.8575 17.479 62.9486 18.0894 63.1547 18.6639C63.3609 19.2384 63.678 19.7654 64.0876 20.214C64.4971 20.6625 64.9909 21.0237 65.5398 21.2762C66.0887 21.5287 66.6818 21.6675 67.2843 21.6845C67.8767 21.6601 68.4582 21.5149 68.9939 21.2574C69.5297 20.9999 70.0088 20.6355 70.4025 20.1859C70.7962 19.7363 71.0965 19.2107 71.2854 18.6407C71.4743 18.0707 71.5479 17.4679 71.5019 16.8683V16.8698Z" fill="black"/>
<path d="M79.9773 0.911621V24.3451H76.5879V0.911621H79.9773Z" fill="black"/>
<path d="M93.1586 19.4721L95.8495 21.2898C95.1271 22.3862 94.1479 23.2839 92.9996 23.9024C91.8513 24.5209 90.5698 24.8409 89.2697 24.8339C88.2321 24.8502 87.2019 24.6541 86.2408 24.2574C85.2796 23.8607 84.4071 23.2715 83.6756 22.5249C82.944 21.7784 82.3683 20.8899 81.983 19.9126C81.5977 18.9353 81.4106 17.8892 81.4329 16.8369C81.3805 15.8099 81.5339 14.7827 81.8841 13.8176C82.2342 12.8525 82.7737 11.9695 83.4699 11.222C84.1661 10.4744 85.0046 9.87786 85.9346 9.46842C86.8646 9.05898 87.8668 8.84514 88.8806 8.83984C90.3852 8.88087 91.8408 9.39062 93.0499 10.2998C94.2589 11.2091 95.1628 12.4737 95.6387 13.9221L95.9983 14.8309L85.4426 19.2584C85.7687 20.0049 86.3082 20.635 86.9913 21.067C87.6745 21.499 88.4697 21.7131 89.2741 21.6814C90.0548 21.6859 90.8232 21.4846 91.5041 21.0973C92.185 20.71 92.7551 20.15 93.1586 19.4721ZM84.8738 16.5947L91.9296 13.6276C91.6589 13.0848 91.2369 12.6347 90.716 12.3333C90.1951 12.0319 89.5984 11.8925 89 11.9325C88.4255 11.9584 87.8618 12.1001 87.3419 12.3496C86.822 12.599 86.3564 12.951 85.9722 13.3851C85.588 13.8192 85.293 14.3266 85.1044 14.8777C84.9158 15.4288 84.8374 16.0125 84.8738 16.5947Z" fill="black"/>
<path d="M12.436 14.7593V11.3677H23.7226C23.8403 12.0436 23.8965 12.7291 23.8906 13.4155C23.9847 16.344 22.9429 19.1932 20.989 21.3512C19.8884 22.5121 18.5574 23.4228 17.084 24.0232C15.6106 24.6235 14.0284 24.8999 12.4419 24.834C9.17441 24.8399 6.03615 23.5399 3.70685 21.2155C1.37755 18.8911 0.0447351 15.7295 -0.00292969 12.4155C0.0454964 9.10253 1.37824 5.94217 3.70683 3.61852C6.03541 1.29487 9.17248 -0.00510898 12.439 -2.89039e-05C13.993 -0.024558 15.5362 0.265394 16.9785 0.852875C18.4207 1.44036 19.733 2.31358 20.8387 3.4215L18.4809 5.81312C16.8594 4.22896 14.6871 3.35771 12.436 3.38861C11.272 3.38753 10.1193 3.62105 9.04494 4.07563C7.9706 4.53021 6.996 5.19678 6.17776 6.03663C5.35952 6.87648 4.71395 7.87286 4.27853 8.96791C3.84311 10.063 3.62653 11.2349 3.64137 12.4155C3.62713 13.5958 3.84409 14.7671 4.27966 15.8616C4.71523 16.9561 5.36075 17.952 6.17875 18.7915C6.99675 19.631 7.97096 20.2973 9.04485 20.7518C10.1187 21.2064 11.2709 21.4401 12.4346 21.4394C13.58 21.4866 14.7226 21.29 15.7885 20.8621C16.8545 20.4342 17.8204 19.7846 18.6238 18.9551C19.678 17.7995 20.3189 16.3182 20.4438 14.7488L12.436 14.7593Z" fill="black"/>
</g>
<defs>
<clipPath id="clip0_206_4475">
<rect width="96" height="32" fill="white"/>
</clipPath>
</defs>
</svg>
