<?xml version="1.0" encoding="utf-8"?>
<!-- Generator: Adobe Illustrator 27.0.0, SVG Export Plug-In . SVG Version: 6.00 Build 0)  -->
<svg version="1.1" id="Layer_1" xmlns="http://www.w3.org/2000/svg" xmlns:xlink="http://www.w3.org/1999/xlink" x="0px" y="0px"
	 viewBox="0 0 56.6 11.3" style="enable-background:new 0 0 56.6 11.3;" xml:space="preserve">
<style type="text/css">
	.st0{opacity:0.25;}
</style>
<g>
	<polygon points="49.8,4.4 46.4,4.6 49,6.8 48.1,10.2 51,8.4 51.1,8.5 51.1,1.2 	"/>
	<polygon points="41,4.4 39.7,1.2 38.4,4.4 35,4.6 37.6,6.8 36.7,10.2 39.6,8.4 42.5,10.2 41.6,6.8 44.4,4.6 	"/>
	<polygon points="29.7,4.4 28.4,1.2 27.1,4.4 23.7,4.6 26.3,6.8 25.4,10.2 28.3,8.4 31.2,10.2 30.3,6.8 33.1,4.6 	"/>
	<polygon points="18.3,4.4 17,1.2 15.7,4.4 12.3,4.6 14.9,6.8 14,10.2 16.9,8.4 19.8,10.2 18.9,6.8 21.7,4.6 	"/>
	<polygon points="6.9,4.4 5.6,1.2 4.3,4.4 0.9,4.6 3.5,6.8 2.6,10.2 5.5,8.4 8.4,10.2 7.5,6.8 10.3,4.6 	"/>
	<polygon class="st0" points="53,6.8 55.8,4.6 52.4,4.4 51.1,1.2 51.1,8.5 53.9,10.2 	"/>
</g>
</svg>
