<?xml version="1.0" encoding="utf-8"?>
<!-- Generator: Adobe Illustrator 27.0.0, SVG Export Plug-In . SVG Version: 6.00 Build 0)  -->
<svg version="1.1" id="Layer_1" xmlns="http://www.w3.org/2000/svg" xmlns:xlink="http://www.w3.org/1999/xlink" x="0px" y="0px"
	 viewBox="0 0 37.8 32" style="enable-background:new 0 0 37.8 32;" xml:space="preserve">
<g>
	<path d="M30.6,1.4H6.2C3.3,1.4,1,3.7,1,6.6v13.3c0,2.9,2.3,5.2,5.2,5.2h12.1l7.7,5.8v-5.8h4.6c2.9,0,5.2-2.3,5.2-5.2V6.6
		C35.8,3.7,33.5,1.4,30.6,1.4z M9.6,15c-1,0-1.9-0.8-1.9-1.9s0.8-1.9,1.9-1.9s1.9,0.8,1.9,1.9S10.6,15,9.6,15z M18.4,15
		c-1,0-1.9-0.8-1.9-1.9s0.8-1.9,1.9-1.9c1,0,1.9,0.8,1.9,1.9S19.4,15,18.4,15z M27.2,15c-1,0-1.9-0.8-1.9-1.9s0.8-1.9,1.9-1.9
		s1.9,0.8,1.9,1.9S28.2,15,27.2,15z"/>
</g>
</svg>
