<svg width="83" height="32" viewBox="0 0 83 32" fill="none" xmlns="http://www.w3.org/2000/svg">
<path d="M67.0115 18.1794L68.3633 17.8725C68.3916 17.8661 68.4393 17.8555 68.4958 17.8374C68.8692 17.7391 69.1891 17.5024 69.3882 17.1772C69.5873 16.852 69.65 16.4636 69.5631 16.0939L69.5577 16.0704C69.513 15.8933 69.4349 15.7259 69.3275 15.577C69.1762 15.3884 68.9888 15.2306 68.7759 15.1124C68.5253 14.9722 68.2631 14.8531 67.992 14.7564L66.5099 14.2246C65.6781 13.9209 64.8464 13.6257 64.006 13.3369C63.462 13.1472 63.0005 12.9799 62.5999 12.8574C62.5236 12.8366 62.4479 12.8139 62.3729 12.7891C61.8887 12.6442 61.5477 12.5835 61.26 12.5813C61.0677 12.5743 60.8761 12.6085 60.6986 12.6815C60.5132 12.7603 60.3467 12.8765 60.21 13.0225C60.1422 13.0981 60.0784 13.1771 60.0189 13.2591C59.9032 13.4336 59.8078 13.6201 59.7344 13.8154C59.4591 14.6137 59.3218 15.4515 59.3283 16.2942C59.3338 17.0551 59.3544 18.0324 59.7811 18.6952C59.8843 18.8658 60.0222 19.0128 60.1861 19.1269C60.4902 19.3325 60.7964 19.3602 61.1167 19.3826C61.5944 19.4157 62.0559 19.3016 62.5174 19.1961L67.0082 18.1784L67.0115 18.1794ZM82.0933 11.1362C81.7243 10.376 81.2281 9.68188 80.6253 9.08264C80.5474 9.00643 80.4639 8.93591 80.3756 8.87164C80.2939 8.81153 80.2091 8.75568 80.1215 8.70432C80.0313 8.65581 79.9385 8.61206 79.8435 8.57324C79.6561 8.5009 79.4552 8.46822 79.2539 8.47733C79.0617 8.48798 78.8739 8.54127 78.7034 8.62972C78.4461 8.75547 78.1671 8.95796 77.7957 9.29578C77.7447 9.34587 77.6806 9.40235 77.622 9.45564C77.3169 9.73805 76.9759 10.0865 76.5709 10.4915C75.9444 11.1128 75.3288 11.7373 74.7153 12.3671L73.6186 13.484C73.4184 13.6877 73.236 13.9076 73.0735 14.1415C72.9344 14.3394 72.836 14.562 72.7836 14.7969C72.7543 14.9774 72.7587 15.1615 72.7967 15.3404L72.8021 15.3639C72.8888 15.7332 73.118 16.0551 73.4417 16.2618C73.7653 16.4686 74.158 16.544 74.5372 16.4722C74.5828 16.4659 74.6281 16.4574 74.6729 16.4466L80.5167 15.1209C80.9782 15.0165 81.4451 14.9205 81.8588 14.684C82.1367 14.5273 82.4006 14.3706 82.5819 14.0552C82.6785 13.8814 82.737 13.6898 82.7535 13.4925C82.8436 12.7103 82.4277 11.8226 82.0933 11.1362V11.1362ZM71.6316 13.5479C72.0551 13.0257 72.0551 12.2478 72.092 11.6105C72.2201 9.48441 72.3537 7.35834 72.4611 5.23121C72.5013 4.42554 72.5893 3.63053 72.5404 2.81847C72.5002 2.14921 72.4959 1.37977 72.0648 0.829871C71.3048 -0.139915 69.6826 -0.0599874 68.5761 0.0913418C68.2348 0.137615 67.896 0.200211 67.5609 0.278904C67.2243 0.357766 66.8899 0.444088 66.5641 0.547461C65.5022 0.888485 64.0092 1.51512 63.7573 2.71616C63.614 3.39501 63.9528 4.08878 64.2134 4.70901C64.5315 5.45927 64.9648 6.13599 65.36 6.84254C66.4056 8.70858 67.4697 10.564 68.5305 12.4204C68.8487 12.9746 69.1929 13.6758 69.8064 13.9635C69.8476 13.9806 69.8889 13.9955 69.9312 14.0094C70.2059 14.1117 70.5067 14.1309 70.7923 14.0659L70.8433 14.0552C71.1082 13.9838 71.3471 13.8421 71.535 13.647C71.5697 13.6151 71.6012 13.5831 71.6327 13.5479H71.6316ZM71.1245 19.2398C70.9593 19.0116 70.7247 18.8406 70.4544 18.7512C70.1841 18.6618 69.8919 18.6587 69.6196 18.7421C69.5555 18.7628 69.4931 18.7881 69.4328 18.8178C69.3395 18.8645 69.2505 18.9191 69.1668 18.9809C68.9278 19.1657 68.7143 19.3803 68.5316 19.6192C68.4849 19.6778 68.4415 19.7556 68.385 19.8068L67.4447 21.075C66.9127 21.7868 66.3861 22.4998 65.866 23.2234C65.525 23.6912 65.2319 24.0866 64.9984 24.4351C64.955 24.5012 64.9094 24.5736 64.8681 24.6333C64.5891 25.0553 64.4316 25.3644 64.3502 25.6393C64.2894 25.822 64.2701 26.0155 64.2937 26.2063C64.3198 26.4045 64.3882 26.5953 64.4935 26.7669C64.55 26.8521 64.6108 26.9352 64.6759 27.0152C64.8166 27.1741 64.9751 27.3171 65.1483 27.4414C65.7976 27.8848 66.5077 28.2034 67.2547 28.4496C67.8769 28.6521 68.5229 28.7736 69.1766 28.8098C69.2884 28.8151 69.4003 28.813 69.511 28.8034C69.6137 28.794 69.7159 28.7797 69.8172 28.7608C69.9186 28.7376 70.0186 28.7092 70.1169 28.6755C70.308 28.6052 70.4818 28.4963 70.6272 28.3558C70.7651 28.2205 70.8715 28.0574 70.9378 27.8773C71.0463 27.6109 71.118 27.2741 71.1658 26.7732C71.169 26.7018 71.1799 26.6166 71.1875 26.5388C71.2244 26.1232 71.2418 25.6329 71.2679 25.0596C71.3145 24.1761 71.3504 23.2969 71.3786 22.4156L71.4394 20.8469C71.4535 20.4867 71.4416 20.086 71.3395 19.7268C71.2946 19.5543 71.2221 19.3899 71.1245 19.2398V19.2398ZM81.7361 21.6941C81.5406 21.4821 81.2627 21.2721 80.824 21.0121C80.761 20.9769 80.6861 20.9311 80.6177 20.8906C80.2529 20.6743 79.8131 20.4483 79.2995 20.1744C78.5102 19.7482 77.7208 19.3347 76.9227 18.9233L75.5144 18.1901C75.4417 18.1688 75.3678 18.1176 75.2984 18.0846C75.0276 17.9488 74.74 17.8482 74.4427 17.7851C74.3404 17.7657 74.2365 17.755 74.1322 17.7532C74.0647 17.7528 73.9972 17.7567 73.9302 17.7649C73.6483 17.8076 73.3873 17.9367 73.1846 18.1336C72.9818 18.3305 72.8475 18.5853 72.801 18.8615C72.7804 19.0373 72.7869 19.2153 72.8216 19.388C72.89 19.7567 73.0573 20.1201 73.231 20.4387L73.9824 21.8231C74.4015 22.6032 74.8249 23.379 75.2593 24.1527C75.5394 24.6568 75.7729 25.0884 75.9911 25.4465C76.0324 25.5136 76.079 25.5861 76.1149 25.6489C76.3809 26.0784 76.5937 26.3491 76.8098 26.5441C76.9537 26.68 77.1265 26.7829 77.3157 26.8456C77.5049 26.9082 77.7059 26.929 77.9043 26.9065C78.0076 26.8941 78.1102 26.8763 78.2116 26.8532C78.4193 26.7986 78.62 26.721 78.8098 26.6219C79.3814 26.3075 79.9082 25.9205 80.3767 25.471C80.9391 24.9275 81.4364 24.3349 81.823 23.6571C81.8772 23.5612 81.9228 23.4621 81.9619 23.3587C81.9983 23.2641 82.0298 23.1677 82.0564 23.0699C82.0792 22.9698 82.0966 22.8696 82.1085 22.7683C82.128 22.5694 82.1047 22.3686 82.0401 22.179C81.9764 21.9971 81.8726 21.8312 81.7361 21.6931V21.6941Z" fill="black"/>
<path fill-rule="evenodd" clip-rule="evenodd" d="M33.2389 8.23334C33.2389 7.09304 34.1847 6.16162 35.3269 6.16162C36.4529 6.16162 37.3672 7.09304 37.416 8.25039V24.4213C37.416 25.5616 36.4692 26.493 35.3269 26.493C35.0509 26.4929 34.7775 26.4391 34.5228 26.3346C34.268 26.2302 34.0369 26.0772 33.8427 25.8846C33.6486 25.6919 33.4952 25.4634 33.3916 25.2123C33.288 24.9611 33.2361 24.6923 33.2389 24.4213V8.23334ZM31.2964 18.2221C31.2802 18.5429 31.1987 19.1376 30.7753 19.5713C30.3181 20.037 29.6981 20.1489 29.3387 20.1489C27.8458 20.1574 26.3528 20.1617 24.8598 20.1649C23.3668 20.1692 21.8738 20.1734 20.3809 20.1809C20.5112 20.5827 20.7717 21.1933 21.3592 21.7549C21.7175 22.0928 22.0606 22.2846 22.2083 22.3656C22.3874 22.4775 23.0074 22.7993 23.774 22.7993C24.5905 22.7993 25.3082 22.5414 26.0107 22.1887L26.0683 22.1588C26.5569 21.9105 27.0596 21.6548 27.5928 21.562C28.114 21.4821 28.6699 21.578 29.0771 21.9318C29.5668 22.3496 29.7633 22.9592 29.583 23.5858C29.3713 24.2924 28.7676 24.903 28.1313 25.2717C27.7672 25.4809 27.3849 25.6581 26.9891 25.8014C25.9792 26.1531 24.9113 26.3168 23.8402 26.2841C23.5796 26.2841 23.3017 26.2841 23.0237 26.2522C22.7305 26.2202 22.4374 26.1552 22.1594 26.0913C21.7088 25.9953 21.2706 25.8498 20.8532 25.6575C20.4356 25.4758 20.0368 25.2553 19.6621 24.9989C19.2883 24.7353 18.9391 24.4396 18.6186 24.1154C18.2998 23.7872 18.0103 23.4329 17.7532 23.0561C16.8726 21.7389 16.4644 20.1169 16.5458 18.5429C16.6109 17.0019 17.1332 15.4598 18.08 14.2076C18.1821 14.0499 18.3005 13.9167 18.4123 13.791C18.4612 13.7355 18.5089 13.6823 18.5534 13.629C19.7218 12.2265 21.2832 11.7832 21.927 11.5999L21.9629 11.5892C23.2697 11.225 24.654 11.225 25.9608 11.5892C26.2713 11.6702 28.0173 12.1999 29.3713 13.629C29.4365 13.6929 29.6167 13.9018 29.8447 14.2076C30.4239 14.9817 30.8493 15.8559 31.0988 16.7845L31.101 16.793C31.1987 17.1458 31.2964 17.6275 31.2964 18.2211V18.2221ZM21.7186 15.5728C21.0743 16.0871 20.6259 16.7998 20.446 17.5955H27.5602C27.3682 16.8005 26.9154 16.0894 26.2713 15.5717C25.6226 15.0612 24.8183 14.7786 23.9868 14.7693C23.1597 14.7773 22.3598 15.0602 21.7175 15.5717L21.7186 15.5728ZM48.7725 11.3164C46.9125 11.3164 45.2154 12.1359 44.0079 13.4691V13.4201C43.9837 12.8847 43.7462 12.3801 43.3464 12.015C42.9467 11.65 42.4168 11.4537 41.871 11.4685C41.3251 11.4833 40.8071 11.7081 40.4285 12.0942C40.05 12.4804 39.8412 12.9972 39.8471 13.5331V28.9654C39.8459 29.2353 39.899 29.5028 40.0034 29.7524C40.1079 30.002 40.2616 30.2289 40.4558 30.42C40.65 30.6111 40.8808 30.7626 41.1348 30.8657C41.3889 30.9689 41.6613 31.0217 41.9362 31.0212C42.2111 31.0216 42.4833 30.9687 42.7373 30.8654C42.9912 30.7622 43.2219 30.6107 43.4159 30.4196C43.61 30.2286 43.7637 30.0017 43.868 29.7522C43.9724 29.5026 44.0255 29.2352 44.0242 28.9654V24.1474C45.2317 25.4646 46.9125 26.3001 48.7887 26.3001C52.5261 26.3001 55.5609 22.9752 55.5609 18.8317C55.5446 14.6893 52.5098 11.3164 48.7725 11.3164ZM47.8593 22.9432C45.7376 22.9432 44.0079 21.1283 44.0079 18.8648C44.0079 16.5842 45.7213 14.7693 47.8593 14.7693C49.9799 14.7693 51.7096 16.5842 51.7096 18.8648C51.6933 21.1283 49.9799 22.9432 47.8593 22.9432V22.9432ZM13.4132 19.9081L12.7281 21.3862C12.4176 22.0277 12.107 22.6863 11.8139 23.345L11.5305 23.9631C10.2253 26.8106 8.67806 30.191 5.30338 30.9082C3.67141 31.262 1.20773 30.7803 0.293478 29.2702C-0.619683 27.7452 0.734315 25.9943 2.48029 26.396C2.75608 26.4557 3.02645 26.5879 3.30007 26.7222C3.75502 26.9459 4.21649 27.1708 4.71596 27.0706C5.18937 26.9907 5.48254 26.6529 5.85822 26.2191C6.37941 25.6255 6.60851 24.9989 6.70624 24.6291L6.68235 24.5737C6.67478 24.5546 6.66645 24.5357 6.65738 24.5172C6.23283 23.7393 5.86148 23.0444 5.55203 22.4636C5.37806 22.1356 5.20252 21.8085 5.02541 21.4821L4.31421 20.1564C3.79302 19.1866 3.70616 19.0267 3.47597 18.6079C2.9685 17.6678 2.43517 16.7414 1.87658 15.8296C1.27287 14.8332 0.652879 13.726 1.15886 12.5526C1.34905 12.0983 1.70617 11.7308 2.15946 11.5227C2.61275 11.3147 3.12913 11.2814 3.60627 11.4294C4.65624 11.7416 5.12205 12.7231 5.55637 13.6396C5.63563 13.8059 5.71273 13.97 5.79308 14.1267C6.49451 15.4918 7.17965 16.857 7.86479 18.2221C7.9256 18.3575 8.0168 18.5418 8.12973 18.7678C8.22962 18.9681 8.3458 19.2015 8.4685 19.4583L8.64983 19.8292C8.7204 19.9741 8.7823 20.0978 8.8279 20.1969C9.14604 19.4189 9.46852 18.6442 9.78992 17.8683C10.1124 17.0936 10.4349 16.3188 10.753 15.5398C10.7617 15.4971 10.8377 15.3309 10.9528 15.0805C11.0495 14.8684 11.1732 14.5966 11.3079 14.2876L11.4458 13.9604C11.8692 12.948 12.3796 11.7299 13.511 11.3974C13.9126 11.283 14.3405 11.2942 14.7353 11.4294C15.1301 11.5646 15.4722 11.8172 15.7141 12.1519C15.9584 12.4887 16.0561 12.8745 16.0724 13.2602C16.0854 14.1128 15.6663 15.0272 15.3058 15.8115C15.2189 16.0034 15.1342 16.1867 15.0615 16.3593L15.0181 16.4531C14.9182 16.6737 14.6467 17.2705 14.1798 18.2541C14.0115 18.6058 13.8497 18.9596 13.6858 19.3166L13.4132 19.9081Z" fill="black"/>
</svg>
