<?xml version="1.0" encoding="utf-8"?>
<!-- Generator: Adobe Illustrator 27.0.0, SVG Export Plug-In . SVG Version: 6.00 Build 0)  -->
<svg version="1.1" id="Layer_1" xmlns="http://www.w3.org/2000/svg" xmlns:xlink="http://www.w3.org/1999/xlink" x="0px" y="0px"
	 viewBox="0 0 93.6 51" style="enable-background:new 0 0 93.6 51;" xml:space="preserve">
<style type="text/css">
	.st0{fill:#FFFFFF;}
</style>
<g>
	<rect x="0.5" y="0.5" class="st0" width="92.6" height="50"/>
	<path d="M93.6,51H0V0h93.6V51z M1,50h91.6V1H1V50z"/>
</g>
<g>
	<path d="M21.4,19.4h1.4v11h6.9v1.3h-8.3V19.4z"/>
	<path d="M31,25.5L31,25.5c0-3.4,2.5-6.4,6.3-6.4s6.2,2.9,6.2,6.3v0c0,3.4-2.5,6.3-6.3,6.3S31,28.9,31,25.5z M42.1,25.5L42.1,25.5
		c0-2.8-2-5.1-4.8-5.1s-4.8,2.2-4.8,5v0c0,2.8,2,5.1,4.8,5.1S42.1,28.3,42.1,25.5z"/>
	<path d="M45.9,25.5L45.9,25.5c0-3.4,2.5-6.4,6.2-6.4c2.1,0,3.3,0.6,4.6,1.6l-0.9,1.1c-0.9-0.8-2-1.4-3.7-1.4c-2.7,0-4.7,2.3-4.7,5
		v0c0,2.9,1.9,5.1,4.9,5.1c1.4,0,2.7-0.5,3.5-1.2v-3.1H52v-1.2h5.1V30c-1.1,1-2.9,1.9-4.9,1.9C48.3,31.8,45.9,29,45.9,25.5z"/>
	<path d="M59.7,25.5L59.7,25.5c0-3.4,2.5-6.4,6.3-6.4c3.7,0,6.2,2.9,6.2,6.3v0c0,3.4-2.5,6.3-6.3,6.3C62.2,31.8,59.7,28.9,59.7,25.5
		z M70.7,25.5L70.7,25.5c0-2.8-2-5.1-4.8-5.1c-2.8,0-4.8,2.2-4.8,5v0c0,2.8,2,5.1,4.8,5.1C68.7,30.6,70.7,28.3,70.7,25.5z"/>
</g>
</svg>
